<svg
  width="32"
  height="32"
  viewBox="0 0 169 32"
  fill="none"
  xmlns="http://www.w3.org/2000/svg"
>
  <g transform="scale(0.19)">
    <path
      d="M45.728 26V8.12H52.4C53.616 8.12 54.688 8.344 55.616 8.792C56.56 9.224 57.296 9.864 57.824 10.712C58.352 11.544 58.616 12.56 58.616 13.76C58.616 14.944 58.344 15.96 57.8 16.808C57.272 17.64 56.544 18.28 55.616 18.728C54.688 19.176 53.616 19.4 52.4 19.4H48.992V26H45.728ZM48.992 16.52H52.448C53.04 16.52 53.552 16.408 53.984 16.184C54.416 15.944 54.752 15.616 54.992 15.2C55.232 14.784 55.352 14.304 55.352 13.76C55.352 13.2 55.232 12.72 54.992 12.32C54.752 11.904 54.416 11.584 53.984 11.36C53.552 11.12 53.04 11 52.448 11H48.992V16.52ZM64.2131 26.288C63.3011 26.288 62.5091 26.136 61.8371 25.832C61.1651 25.528 60.6451 25.096 60.2771 24.536C59.9091 23.96 59.7251 23.296 59.7251 22.544C59.7251 21.824 59.8851 21.184 60.2051 20.624C60.5251 20.048 61.0211 19.568 61.6931 19.184C62.3651 18.8 63.2131 18.528 64.2371 18.368L68.5091 17.672V20.072L64.8371 20.696C64.2131 20.808 63.7491 21.008 63.4451 21.296C63.1411 21.584 62.9891 21.96 62.9891 22.424C62.9891 22.872 63.1571 23.232 63.4931 23.504C63.8451 23.76 64.2771 23.888 64.7891 23.888C65.4451 23.888 66.0211 23.752 66.5171 23.48C67.0291 23.192 67.4211 22.8 67.6931 22.304C67.9811 21.808 68.1251 21.264 68.1251 20.672V17.312C68.1251 16.752 67.9011 16.288 67.4531 15.92C67.0211 15.536 66.4451 15.344 65.7251 15.344C65.0531 15.344 64.4531 15.528 63.9251 15.896C63.4131 16.248 63.0371 16.72 62.7971 17.312L60.2291 16.064C60.4851 15.376 60.8851 14.784 61.4291 14.288C61.9891 13.776 62.6451 13.376 63.3971 13.088C64.1491 12.8 64.9651 12.656 65.8451 12.656C66.9171 12.656 67.8611 12.856 68.6771 13.256C69.4931 13.64 70.1251 14.184 70.5731 14.888C71.0371 15.576 71.2691 16.384 71.2691 17.312V26H68.2931V23.768L68.9651 23.72C68.6291 24.28 68.2291 24.752 67.7651 25.136C67.3011 25.504 66.7731 25.792 66.1811 26C65.5891 26.192 64.9331 26.288 64.2131 26.288ZM79.1429 26.288C77.7509 26.288 76.5349 25.96 75.4949 25.304C74.4709 24.632 73.7669 23.728 73.3829 22.592L75.7349 21.464C76.0709 22.2 76.5349 22.776 77.1269 23.192C77.7349 23.608 78.4069 23.816 79.1429 23.816C79.7189 23.816 80.1749 23.688 80.5109 23.432C80.8469 23.176 81.0149 22.84 81.0149 22.424C81.0149 22.168 80.9429 21.96 80.7989 21.8C80.6709 21.624 80.4869 21.48 80.2469 21.368C80.0229 21.24 79.7749 21.136 79.5029 21.056L77.3669 20.456C76.2629 20.136 75.4229 19.648 74.8469 18.992C74.2869 18.336 74.0069 17.56 74.0069 16.664C74.0069 15.864 74.2069 15.168 74.6069 14.576C75.0229 13.968 75.5909 13.496 76.3109 13.16C77.0469 12.824 77.8869 12.656 78.8309 12.656C80.0629 12.656 81.1509 12.952 82.0949 13.544C83.0389 14.136 83.7109 14.968 84.1109 16.04L81.7109 17.168C81.4869 16.576 81.1109 16.104 80.5829 15.752C80.0549 15.4 79.4629 15.224 78.8069 15.224C78.2789 15.224 77.8629 15.344 77.5589 15.584C77.2549 15.824 77.1029 16.136 77.1029 16.52C77.1029 16.76 77.1669 16.968 77.2949 17.144C77.4229 17.32 77.5989 17.464 77.8229 17.576C78.0629 17.688 78.3349 17.792 78.6389 17.888L80.7269 18.512C81.7989 18.832 82.6229 19.312 83.1989 19.952C83.7909 20.592 84.0869 21.376 84.0869 22.304C84.0869 23.088 83.8789 23.784 83.4629 24.392C83.0469 24.984 82.4709 25.448 81.7349 25.784C80.9989 26.12 80.1349 26.288 79.1429 26.288ZM86.5031 26V12.944H89.6471V26H86.5031ZM86.5031 11.48V8.12H89.6471V11.48H86.5031ZM98.7419 26.288C97.3979 26.288 96.2219 25.984 95.2139 25.376C94.2059 24.768 93.4219 23.944 92.8619 22.904C92.3019 21.864 92.0219 20.712 92.0219 19.448C92.0219 18.136 92.3019 16.976 92.8619 15.968C93.4379 14.944 94.2139 14.136 95.1899 13.544C96.1819 12.952 97.2859 12.656 98.5019 12.656C99.5259 12.656 100.422 12.824 101.19 13.16C101.974 13.496 102.638 13.96 103.182 14.552C103.726 15.144 104.142 15.824 104.43 16.592C104.718 17.344 104.862 18.16 104.862 19.04C104.862 19.264 104.846 19.496 104.814 19.736C104.798 19.976 104.758 20.184 104.694 20.36H94.6139V17.96H102.918L101.43 19.088C101.574 18.352 101.534 17.696 101.31 17.12C101.102 16.544 100.75 16.088 100.254 15.752C99.7739 15.416 99.1899 15.248 98.5019 15.248C97.8459 15.248 97.2619 15.416 96.7499 15.752C96.2379 16.072 95.8459 16.552 95.5739 17.192C95.3179 17.816 95.2219 18.576 95.2859 19.472C95.2219 20.272 95.3259 20.984 95.5979 21.608C95.8859 22.216 96.3019 22.688 96.8459 23.024C97.4059 23.36 98.0459 23.528 98.7659 23.528C99.4859 23.528 100.094 23.376 100.59 23.072C101.102 22.768 101.502 22.36 101.79 21.848L104.334 23.096C104.078 23.72 103.678 24.272 103.134 24.752C102.59 25.232 101.942 25.608 101.19 25.88C100.454 26.152 99.6379 26.288 98.7419 26.288ZM107.245 26V12.944H110.197V15.512L109.957 15.056C110.261 14.272 110.757 13.68 111.445 13.28C112.149 12.864 112.965 12.656 113.893 12.656C114.853 12.656 115.701 12.864 116.437 13.28C117.189 13.696 117.773 14.28 118.189 15.032C118.605 15.768 118.813 16.624 118.813 17.6V26H115.669V18.344C115.669 17.768 115.557 17.272 115.333 16.856C115.109 16.44 114.797 16.12 114.397 15.896C114.013 15.656 113.557 15.536 113.029 15.536C112.517 15.536 112.061 15.656 111.661 15.896C111.261 16.12 110.949 16.44 110.725 16.856C110.501 17.272 110.389 17.768 110.389 18.344V26H107.245Z"
        fill="#121212"
      />
      <path
        d="M121.736 26V8.12H128.408C129.624 8.12 130.696 8.344 131.624 8.792C132.568 9.224 133.304 9.864 133.832 10.712C134.36 11.544 134.624 12.56 134.624 13.76C134.624 14.944 134.352 15.96 133.808 16.808C133.28 17.64 132.552 18.28 131.624 18.728C130.696 19.176 129.624 19.4 128.408 19.4H125V26H121.736ZM125 16.52H128.456C129.048 16.52 129.56 16.408 129.992 16.184C130.424 15.944 130.76 15.616 131 15.2C131.24 14.784 131.36 14.304 131.36 13.76C131.36 13.2 131.24 12.72 131 12.32C130.76 11.904 130.424 11.584 129.992 11.36C129.56 11.12 129.048 11 128.456 11H125V16.52ZM137.034 26V7.832H140.178V26H137.034ZM147.737 26.288C146.729 26.288 145.849 26.064 145.097 25.616C144.361 25.168 143.793 24.544 143.393 23.744C143.009 22.944 142.817 22.008 142.817 20.936V12.944H145.961V20.672C145.961 21.216 146.065 21.696 146.273 22.112C146.497 22.512 146.809 22.832 147.209 23.072C147.625 23.296 148.089 23.408 148.601 23.408C149.113 23.408 149.569 23.296 149.969 23.072C150.369 22.832 150.681 22.504 150.905 22.088C151.129 21.672 151.241 21.176 151.241 20.6V12.944H154.385V26H151.409V23.432L151.673 23.888C151.369 24.688 150.865 25.288 150.161 25.688C149.473 26.088 148.665 26.288 147.737 26.288ZM162.276 26.288C160.884 26.288 159.668 25.96 158.628 25.304C157.604 24.632 156.9 23.728 156.516 22.592L158.868 21.464C159.204 22.2 159.668 22.776 160.26 23.192C160.868 23.608 161.54 23.816 162.276 23.816C162.852 23.816 163.308 23.688 163.644 23.432C163.98 23.176 164.148 22.84 164.148 22.424C164.148 22.168 164.076 21.96 163.932 21.8C163.804 21.624 163.62 21.48 163.38 21.368C163.156 21.24 162.908 21.136 162.636 21.056L160.5 20.456C159.396 20.136 158.556 19.648 157.98 18.992C157.42 18.336 157.14 17.56 157.14 16.664C157.14 15.864 157.34 15.168 157.74 14.576C158.156 13.968 158.724 13.496 159.444 13.16C160.18 12.824 161.02 12.656 161.964 12.656C163.196 12.656 164.284 12.952 165.228 13.544C166.172 14.136 166.844 14.968 167.244 16.04L164.844 17.168C164.62 16.576 164.244 16.104 163.716 15.752C163.188 15.4 162.596 15.224 161.94 15.224C161.412 15.224 160.996 15.344 160.692 15.584C160.388 15.824 160.236 16.136 160.236 16.52C160.236 16.76 160.3 16.968 160.428 17.144C160.556 17.32 160.732 17.464 160.956 17.576C161.196 17.688 161.468 17.792 161.772 17.888L163.86 18.512C164.932 18.832 165.756 19.312 166.332 19.952C166.924 20.592 167.22 21.376 167.22 22.304C167.22 23.088 167.012 23.784 166.596 24.392C166.18 24.984 165.604 25.448 164.868 25.784C164.132 26.12 163.268 26.288 162.276 26.288Z"
        fill="#2563EB"
      />
    </g>
    </svg>

    
