    <svg
  width="32"
  height="32"
  viewBox="0 0 32 32"
      fill="none"
      xmlns="http://www.w3.org/2000/svg"
    >
      <path
        d="M11.7333 14.9333C10.3188 14.9333 8.96229 14.3714 7.9621 13.3712C6.9619 12.371 6.4 11.0145 6.4 9.6V5.33333C6.4 5.05044 6.51238 4.77913 6.71242 4.57909C6.91246 4.37905 7.18377 4.26667 7.46667 4.26667H8.53333C8.81623 4.26667 9.08754 4.15429 9.28758 3.95425C9.48762 3.75421 9.6 3.4829 9.6 3.2C9.6 2.9171 9.48762 2.64579 9.28758 2.44575C9.08754 2.24571 8.81623 2.13333 8.53333 2.13333H7.46667C6.61797 2.13333 5.80404 2.47048 5.20392 3.07059C4.60381 3.67071 4.26667 4.48464 4.26667 5.33333V9.6C4.26804 10.8051 4.56189 11.9918 5.12299 13.0582C5.68408 14.1247 6.49565 15.039 7.488 15.7227C8.44142 16.5632 9.21462 17.5883 9.76094 18.7359C10.3073 19.8836 10.6154 21.13 10.6667 22.4C10.6667 24.3803 11.4533 26.2795 12.8536 27.6797C14.2539 29.08 16.1531 29.8667 18.1333 29.8667C20.1136 29.8667 22.0128 29.08 23.4131 27.6797C24.8133 26.2795 25.6 24.3803 25.6 22.4V21.184C26.6055 20.9244 27.4818 20.307 28.0646 19.4475C28.6475 18.588 28.8968 17.5454 28.766 16.5152C28.6351 15.485 28.1331 14.5379 27.3538 13.8514C26.5746 13.1649 25.5718 12.7862 24.5333 12.7862C23.4949 12.7862 22.492 13.1649 21.7128 13.8514C20.9336 14.5379 20.4315 15.485 20.3007 16.5152C20.1698 17.5454 20.4192 18.588 21.002 19.4475C21.5849 20.307 22.4612 20.9244 23.4667 21.184V22.4C23.4667 23.8145 22.9048 25.171 21.9046 26.1712C20.9044 27.1714 19.5478 27.7333 18.1333 27.7333C16.7188 27.7333 15.3623 27.1714 14.3621 26.1712C13.3619 25.171 12.8 23.8145 12.8 22.4C12.854 21.1284 13.1654 19.881 13.7155 18.7333C14.2655 17.5855 15.0427 16.5613 16 15.7227C16.9884 15.0366 17.7958 14.1213 18.3531 13.055C18.9104 11.9886 19.201 10.8032 19.2 9.6V5.33333C19.2 4.48464 18.8629 3.67071 18.2627 3.07059C17.6626 2.47048 16.8487 2.13333 16 2.13333H14.9333C14.6504 2.13333 14.3791 2.24571 14.1791 2.44575C13.979 2.64579 13.8667 2.9171 13.8667 3.2C13.8667 3.4829 13.979 3.75421 14.1791 3.95425C14.3791 4.15429 14.6504 4.26667 14.9333 4.26667H16C16.2829 4.26667 16.5542 4.37905 16.7542 4.57909C16.9543 4.77913 17.0667 5.05044 17.0667 5.33333V9.6C17.0667 10.3004 16.9287 10.9939 16.6607 11.641C16.3927 12.288 15.9998 12.876 15.5046 13.3712C15.0093 13.8665 14.4214 14.2593 13.7743 14.5274C13.1272 14.7954 12.4337 14.9333 11.7333 14.9333ZM24.5333 19.2C23.9675 19.2 23.4249 18.9752 23.0248 18.5752C22.6248 18.1751 22.4 17.6325 22.4 17.0667C22.4 16.5009 22.6248 15.9583 23.0248 15.5582C23.4249 15.1581 23.9675 14.9333 24.5333 14.9333C25.0991 14.9333 25.6418 15.1581 26.0418 15.5582C26.4419 15.9583 26.6667 16.5009 26.6667 17.0667C26.6667 17.6325 26.4419 18.1751 26.0418 18.5752C25.6418 18.9752 25.0991 19.2 24.5333 19.2Z"
        fill="#2563EB"
      />
    </svg>